<svg version="1.1" id="Layer_1" xmlns="http://www.w3.org/2000/svg" xmlns:xlink="http://www.w3.org/1999/xlink" x="0px" y="0px"
	 width="100%" viewBox="0 0 1200 1200" enable-background="new 0 0 1200 1200" xml:space="preserve">
<path fill="#000000" opacity="1.000000" stroke="none" 
	d="
M555.000000,1201.000000 
	C370.000000,1201.000000 185.500000,1201.000000 1.000000,1201.000000 
	C1.000000,801.000000 1.000000,401.000000 1.000000,1.000000 
	C401.000000,1.000000 801.000000,1.000000 1201.000000,1.000000 
	C1201.000000,401.000000 1201.000000,801.000000 1201.000000,1201.000000 
	C985.833313,1201.000000 770.666687,1201.000000 555.000000,1201.000000 
M544.042419,325.473633 
	C538.294678,328.862701 532.564087,332.281281 526.795776,335.634949 
	C512.571716,343.904907 498.342163,352.165710 484.092712,360.391754 
	C468.445496,369.424652 452.894318,378.636627 437.027740,387.267761 
	C433.044983,389.434326 431.856537,391.612946 431.898102,395.931763 
	C432.116089,418.590759 432.000000,441.252991 432.000000,463.914093 
	C432.000000,503.404388 431.974670,542.894775 432.078644,582.384827 
	C432.083588,584.262268 432.658661,587.066406 433.944305,587.862305 
	C442.518677,593.170410 451.349915,598.064880 460.114258,603.064636 
	C476.660980,612.504089 493.260284,621.852051 509.762787,631.368042 
	C536.705200,646.904175 563.813171,662.174561 590.359314,678.363831 
	C598.430786,683.286316 604.832031,684.038940 611.948242,677.999023 
	C612.316467,677.686523 612.789917,677.498108 613.214050,677.251526 
	C629.384399,667.851074 645.530396,658.408569 661.731750,649.061890 
	C677.820496,639.780212 693.990784,630.639832 710.078064,621.355713 
	C728.535095,610.703796 746.869751,599.836975 765.433167,589.375000 
	C768.747192,587.507263 770.116272,585.818054 770.102295,581.895081 
	C769.941772,536.740051 770.000000,491.584259 770.000000,446.428680 
	C770.000000,428.932983 770.056335,411.436798 769.907959,393.942383 
	C769.893982,392.288696 769.059265,389.923431 767.812256,389.120361 
	C761.668884,385.164185 755.283875,381.578247 748.936829,377.944214 
	C723.785706,363.543701 698.586182,349.227478 673.464294,334.776306 
	C652.711121,322.838257 631.833069,311.093781 611.447021,298.553711 
	C604.145569,294.062347 598.045166,292.276489 591.188721,298.337891 
	C590.345520,299.083374 589.297485,299.610504 588.308105,300.175323 
	C573.766113,308.477325 559.217896,316.768524 544.042419,325.473633 
M809.934875,778.095215 
	C809.443909,780.518860 808.952942,782.942566 808.460815,785.371826 
	C806.102661,783.623047 803.854736,781.731140 801.394104,780.175720 
	C795.329407,776.342407 788.474548,776.936462 781.751953,777.012085 
	C771.316833,777.129517 763.157349,781.858093 757.118591,790.067627 
	C751.283386,798.000549 749.049500,807.155884 747.737061,816.936829 
	C745.996033,829.911133 747.648804,842.228271 753.453064,853.547729 
	C759.856628,866.036133 770.292847,873.177856 785.148315,873.130798 
	C793.406006,873.104675 800.361450,870.511902 806.708557,865.296570 
	C808.365723,875.155396 803.602478,883.867432 795.827942,886.584229 
	C789.485657,888.800354 782.881775,889.250183 776.685120,886.129272 
	C772.230164,883.885559 768.103455,880.990112 763.576782,878.230774 
	C760.101562,882.931396 756.437500,887.887268 752.544189,893.153320 
	C754.859192,895.259155 756.715637,897.424988 759.000549,898.948425 
	C773.406799,908.553589 788.915039,910.180237 805.389038,905.283264 
	C816.207031,902.067627 824.942749,896.302856 828.950378,885.448914 
	C831.058228,879.740295 832.737366,873.504089 832.822205,867.480896 
	C833.220825,839.162292 833.003784,810.834900 832.987610,782.510681 
	C832.986816,781.080017 832.810364,779.649536 832.702148,778.015015 
	C825.155029,778.015015 818.007629,778.015015 809.934875,778.095215 
M278.447601,751.920837 
	C260.425842,761.276184 258.068420,782.491821 266.012787,795.694336 
	C271.588593,804.960632 280.602020,809.905090 290.161835,813.928772 
	C300.282501,818.188416 310.542450,822.116394 320.678741,826.340149 
	C326.308563,828.685974 328.088715,833.929321 327.783417,839.163513 
	C327.456757,844.764771 324.417450,849.729248 318.320801,850.881958 
	C313.337311,851.824158 308.014160,852.518311 303.085938,851.751770 
	C298.514862,851.040710 293.288116,849.234009 290.143829,846.106445 
	C286.777557,842.758118 285.506927,837.302856 283.142853,832.395996 
	C275.557831,832.395996 266.843140,832.395996 257.983124,832.395996 
	C257.896118,842.769592 261.134186,851.544922 268.161346,858.534607 
	C276.415192,866.744507 286.708771,870.644958 298.252411,872.204468 
	C312.635406,874.147705 326.412476,873.224792 339.204987,865.920898 
	C354.781982,857.027100 357.440308,838.429260 351.515564,824.193542 
	C346.124481,811.239929 334.260956,805.749084 322.094849,800.951050 
	C312.896637,797.323425 303.128540,794.610840 294.736481,789.608215 
	C285.087555,783.856262 286.607544,774.974487 293.548492,769.514038 
	C297.097809,766.721802 302.632019,765.239502 307.230194,765.322388 
	C312.182770,765.411743 318.089233,766.826599 321.738129,769.870544 
	C325.454376,772.970703 326.929413,778.757446 329.514038,783.608643 
	C337.081421,783.608643 345.475922,783.608643 353.824310,783.608643 
	C355.145325,765.923401 342.903229,751.808838 326.291687,747.206543 
	C310.276062,742.769287 294.188202,743.348083 278.447601,751.920837 
M856.502869,799.003235 
	C864.447327,821.897400 872.384583,844.794006 880.339783,867.684448 
	C883.481140,876.723511 875.674561,887.878296 866.087280,887.995850 
	C863.824951,888.023621 861.561890,887.999939 859.005615,887.999939 
	C859.005615,893.934753 858.873596,899.247253 859.114380,904.542847 
	C859.163879,905.631836 860.416565,907.320679 861.434509,907.610840 
	C872.807190,910.852417 888.505249,908.424255 895.028748,896.416504 
	C898.945007,889.207886 902.157654,881.536682 904.930908,873.802429 
	C913.034119,851.203735 920.769104,828.472778 928.625122,805.785583 
	C931.780090,796.674683 934.874329,787.542664 938.082764,778.167175 
	C928.471680,778.167175 919.505737,778.167175 910.559937,778.167175 
	C904.994446,796.722412 899.476440,815.119141 893.670349,834.476257 
	C887.779663,814.922729 882.225403,796.486206 876.715515,778.197021 
	C867.599548,778.197021 858.969727,778.197021 849.384949,778.197021 
	C851.716919,785.204590 853.898560,791.760437 856.502869,799.003235 
M450.915924,794.351807 
	C452.685699,789.073303 454.455475,783.794861 456.397247,778.003418 
	C447.501709,778.003418 439.521851,777.920044 431.547638,778.095032 
	C430.378174,778.120667 428.493866,779.141785 428.194733,780.095703 
	C424.985077,790.330078 422.031708,800.644775 418.999786,810.934998 
	C416.832001,818.292480 414.651581,825.646179 412.113739,834.229492 
	C411.412170,832.432556 411.166779,831.912781 411.002869,831.368469 
	C405.997803,814.748596 401.036224,798.115356 395.934570,781.525269 
	C395.528931,780.206177 394.193085,778.205200 393.237152,778.174988 
	C384.875824,777.910034 376.502594,778.021790 367.832306,778.021790 
	C368.101593,779.470825 368.138275,780.131592 368.348267,780.731628 
	C378.441925,809.572388 388.566376,838.402222 398.618652,867.257324 
	C399.232910,869.020569 400.130188,871.372803 399.469330,872.782104 
	C394.840027,882.653870 396.621948,888.486450 379.857300,888.033386 
	C379.397888,888.020996 378.932678,888.224182 378.020599,888.426697 
	C378.020599,894.036438 377.914307,899.656616 378.126129,905.264771 
	C378.161072,906.190002 379.589081,907.836243 380.374664,907.837097 
	C386.659973,907.843933 393.137207,908.426880 399.189117,907.126953 
	C409.976044,904.809875 415.239288,895.913574 418.606140,886.555786 
	C429.543213,856.157410 439.898285,825.549561 450.915924,794.351807 
M578.906311,803.421997 
	C574.372925,815.224426 573.831665,827.340454 576.314331,839.618225 
	C578.613037,850.986206 585.090149,859.657104 594.589355,865.997864 
	C603.347656,871.844055 613.244629,873.276733 623.641968,873.076294 
	C637.879272,872.801819 649.168945,867.094482 658.083618,856.083191 
	C655.072571,852.609192 652.044434,849.359375 649.304626,845.882263 
	C646.824280,842.734558 645.020813,842.338623 641.820801,845.475464 
	C635.132141,852.032288 626.988464,854.635925 617.595276,852.184082 
	C607.806702,849.628967 602.836182,842.990662 601.081848,832.882080 
	C620.781433,832.882080 640.193787,832.882080 660.466064,832.882080 
	C659.893433,824.547668 659.869629,816.608765 658.668274,808.852234 
	C657.465332,801.085938 654.074341,793.946655 648.583679,788.134216 
	C639.945679,778.989990 628.981384,777.021362 616.796509,776.781494 
	C599.873962,776.448242 584.697144,787.392822 578.906311,803.421997 
M551.751282,797.136719 
	C546.244141,780.752808 537.888977,778.012634 527.976196,777.011414 
	C516.194397,775.821533 505.643372,778.454895 497.559845,787.872437 
	C496.894653,784.172913 496.355255,781.173035 495.853210,778.380920 
	C487.629730,778.380920 479.899841,778.380920 472.240814,778.380920 
	C472.240814,809.353516 472.240814,839.945007 472.240814,870.709473 
	C480.867920,870.709473 489.252838,870.709473 497.999725,870.709473 
	C497.999725,868.622620 497.999725,866.822449 497.999725,865.022339 
	C497.999725,846.532837 497.990479,828.043335 498.017700,809.553833 
	C498.019867,808.089966 497.892822,806.448486 498.477509,805.193054 
	C501.303375,799.125549 510.380768,795.402039 517.481140,797.194214 
	C524.475159,798.959534 526.997559,802.757874 526.998779,811.547058 
	C527.001160,829.536865 526.999329,847.526611 526.999268,865.516418 
	C526.999268,867.270386 526.999268,869.024353 526.999268,870.770142 
	C535.981384,870.770142 544.248596,870.770142 552.008484,870.770142 
	C552.008484,846.342407 552.008484,822.149109 551.751282,797.136719 
M719.123596,801.040161 
	C724.039062,801.040161 728.954529,801.040161 733.719482,801.040161 
	C733.719482,792.615845 733.719482,785.017029 733.719482,777.424072 
	C722.568787,775.808411 712.611938,776.948975 705.055420,786.705811 
	C705.055420,783.972534 705.055420,781.239197 705.055420,778.258057 
	C696.887329,778.258057 689.162476,778.258057 681.284790,778.258057 
	C681.284790,809.214478 681.284790,839.919739 681.284790,870.666992 
	C689.624939,870.666992 697.676636,870.666992 706.000244,870.666992 
	C706.000244,851.703735 706.124268,833.070801 705.917908,814.441528 
	C705.862427,809.431091 708.267822,806.365967 712.086548,804.019775 
	C713.996582,802.846130 716.207886,802.162842 719.123596,801.040161 
z"/>
<path fill="#5DACBD" opacity="1.000000" stroke="none" 
	d="
M544.356812,325.267944 
	C559.217896,316.768524 573.766113,308.477325 588.308105,300.175323 
	C589.297485,299.610504 590.345520,299.083374 591.188721,298.337891 
	C598.045166,292.276489 604.145569,294.062347 611.447021,298.553711 
	C631.833069,311.093781 652.711121,322.838257 673.464294,334.776306 
	C698.586182,349.227478 723.785706,363.543701 748.936829,377.944214 
	C755.283875,381.578247 761.668884,385.164185 767.812256,389.120361 
	C769.059265,389.923431 769.893982,392.288696 769.907959,393.942383 
	C770.056335,411.436798 770.000000,428.932983 770.000000,446.428680 
	C770.000000,491.584259 769.941772,536.740051 770.102295,581.895081 
	C770.116272,585.818054 768.747192,587.507263 765.433167,589.375000 
	C746.869751,599.836975 728.535095,610.703796 710.078064,621.355713 
	C693.990784,630.639832 677.820496,639.780212 661.731750,649.061890 
	C645.530396,658.408569 629.384399,667.851074 613.214050,677.251526 
	C612.789917,677.498108 612.316467,677.686523 611.948242,677.999023 
	C604.832031,684.038940 598.430786,683.286316 590.359314,678.363831 
	C563.813171,662.174561 536.705200,646.904175 509.762787,631.368042 
	C493.260284,621.852051 476.660980,612.504089 460.114258,603.064636 
	C451.349915,598.064880 442.518677,593.170410 433.944305,587.862305 
	C432.658661,587.066406 432.083588,584.262268 432.078644,582.384827 
	C431.974670,542.894775 432.000000,503.404388 432.000000,463.914093 
	C432.000000,441.252991 432.116089,418.590759 431.898102,395.931763 
	C431.856537,391.612946 433.044983,389.434326 437.027740,387.267761 
	C452.894318,378.636627 468.445496,369.424652 484.092712,360.391754 
	C498.342163,352.165710 512.571716,343.904907 526.795776,335.634949 
	C532.564087,332.281281 538.294678,328.862701 544.356812,325.267944 
M754.000122,516.500000 
	C754.000122,479.177399 753.989502,441.854797 754.021912,404.532227 
	C754.024292,401.790436 753.860046,399.575684 750.965149,397.921722 
	C729.608154,385.719666 708.372742,373.305023 687.060669,361.023987 
	C659.265137,345.006836 631.445190,329.031921 603.581970,313.133087 
	C602.348938,312.429504 600.360046,312.091370 599.110046,312.577515 
	C596.562622,313.568268 594.280518,315.240265 591.887024,316.628174 
	C575.570007,326.089874 559.261902,335.567108 542.932129,345.006775 
	C529.252197,352.914703 515.539368,360.765686 501.854370,368.664917 
	C485.491425,378.109985 469.202087,387.685120 452.739624,396.953064 
	C449.283661,398.898651 447.892120,400.970367 447.902985,405.042877 
	C448.047943,459.360321 448.075317,513.678528 447.897095,567.995728 
	C447.876556,574.258301 449.017670,577.976440 455.340973,581.474976 
	C485.252869,598.024658 514.629150,615.540833 544.234741,632.646179 
	C561.999695,642.910339 579.906128,652.932312 597.565674,663.373352 
	C600.353088,665.021362 601.874207,664.979431 604.539124,663.388245 
	C617.369141,655.727173 630.368347,648.348511 643.334106,640.915955 
	C662.121643,630.146301 680.953247,619.453308 699.726318,608.658569 
	C716.389282,599.077026 732.959900,589.334167 749.665283,579.827881 
	C752.729492,578.084167 754.135925,576.206116 754.093933,572.483276 
	C753.887512,554.157471 754.000122,535.828125 754.000122,516.500000 
z"/>
<path fill="#5DACBD" opacity="1.000000" stroke="none" 
	d="
M810.397522,778.055115 
	C818.007629,778.015015 825.155029,778.015015 832.702148,778.015015 
	C832.810364,779.649536 832.986816,781.080017 832.987610,782.510681 
	C833.003784,810.834900 833.220825,839.162292 832.822205,867.480896 
	C832.737366,873.504089 831.058228,879.740295 828.950378,885.448914 
	C824.942749,896.302856 816.207031,902.067627 805.389038,905.283264 
	C788.915039,910.180237 773.406799,908.553589 759.000549,898.948425 
	C756.715637,897.424988 754.859192,895.259155 752.544189,893.153320 
	C756.437500,887.887268 760.101562,882.931396 763.576782,878.230774 
	C768.103455,880.990112 772.230164,883.885559 776.685120,886.129272 
	C782.881775,889.250183 789.485657,888.800354 795.827942,886.584229 
	C803.602478,883.867432 808.365723,875.155396 806.708557,865.296570 
	C800.361450,870.511902 793.406006,873.104675 785.148315,873.130798 
	C770.292847,873.177856 759.856628,866.036133 753.453064,853.547729 
	C747.648804,842.228271 745.996033,829.911133 747.737061,816.936829 
	C749.049500,807.155884 751.283386,798.000549 757.118591,790.067627 
	C763.157349,781.858093 771.316833,777.129517 781.751953,777.012085 
	C788.474548,776.936462 795.329407,776.342407 801.394104,780.175720 
	C803.854736,781.731140 806.102661,783.623047 808.460815,785.371826 
	C808.952942,782.942566 809.443909,780.518860 810.397522,778.055115 
M806.260925,845.244629 
	C806.485840,844.819702 806.905334,844.395569 806.907227,843.969666 
	C806.962097,831.671692 807.055908,819.372620 806.896790,807.076843 
	C806.876038,805.470459 805.831543,803.618958 804.736206,802.325745 
	C796.149231,792.188843 779.849243,796.124756 775.227966,809.759399 
	C772.084778,819.033447 771.995789,828.646362 774.639954,838.223938 
	C776.753662,845.880371 781.268494,851.434631 789.129456,852.793579 
	C795.719421,853.932861 801.644470,851.453430 806.260925,845.244629 
z"/>
<path fill="#5DACBD" opacity="1.000000" stroke="none" 
	d="
M278.745422,751.688843 
	C294.188202,743.348083 310.276062,742.769287 326.291687,747.206543 
	C342.903229,751.808838 355.145325,765.923401 353.824310,783.608643 
	C345.475922,783.608643 337.081421,783.608643 329.514038,783.608643 
	C326.929413,778.757446 325.454376,772.970703 321.738129,769.870544 
	C318.089233,766.826599 312.182770,765.411743 307.230194,765.322388 
	C302.632019,765.239502 297.097809,766.721802 293.548492,769.514038 
	C286.607544,774.974487 285.087555,783.856262 294.736481,789.608215 
	C303.128540,794.610840 312.896637,797.323425 322.094849,800.951050 
	C334.260956,805.749084 346.124481,811.239929 351.515564,824.193542 
	C357.440308,838.429260 354.781982,857.027100 339.204987,865.920898 
	C326.412476,873.224792 312.635406,874.147705 298.252411,872.204468 
	C286.708771,870.644958 276.415192,866.744507 268.161346,858.534607 
	C261.134186,851.544922 257.896118,842.769592 257.983124,832.395996 
	C266.843140,832.395996 275.557831,832.395996 283.142853,832.395996 
	C285.506927,837.302856 286.777557,842.758118 290.143829,846.106445 
	C293.288116,849.234009 298.514862,851.040710 303.085938,851.751770 
	C308.014160,852.518311 313.337311,851.824158 318.320801,850.881958 
	C324.417450,849.729248 327.456757,844.764771 327.783417,839.163513 
	C328.088715,833.929321 326.308563,828.685974 320.678741,826.340149 
	C310.542450,822.116394 300.282501,818.188416 290.161835,813.928772 
	C280.602020,809.905090 271.588593,804.960632 266.012787,795.694336 
	C258.068420,782.491821 260.425842,761.276184 278.745422,751.688843 
z"/>
<path fill="#5DACBD" opacity="1.000000" stroke="none" 
	d="
M856.291504,798.659729 
	C853.898560,791.760437 851.716919,785.204590 849.384949,778.197021 
	C858.969727,778.197021 867.599548,778.197021 876.715515,778.197021 
	C882.225403,796.486206 887.779663,814.922729 893.670349,834.476257 
	C899.476440,815.119141 904.994446,796.722412 910.559937,778.167175 
	C919.505737,778.167175 928.471680,778.167175 938.082764,778.167175 
	C934.874329,787.542664 931.780090,796.674683 928.625122,805.785583 
	C920.769104,828.472778 913.034119,851.203735 904.930908,873.802429 
	C902.157654,881.536682 898.945007,889.207886 895.028748,896.416504 
	C888.505249,908.424255 872.807190,910.852417 861.434509,907.610840 
	C860.416565,907.320679 859.163879,905.631836 859.114380,904.542847 
	C858.873596,899.247253 859.005615,893.934753 859.005615,887.999939 
	C861.561890,887.999939 863.824951,888.023621 866.087280,887.995850 
	C875.674561,887.878296 883.481140,876.723511 880.339783,867.684448 
	C872.384583,844.794006 864.447327,821.897400 856.291504,798.659729 
z"/>
<path fill="#5DACBD" opacity="1.000000" stroke="none" 
	d="
M450.696655,794.687073 
	C439.898285,825.549561 429.543213,856.157410 418.606140,886.555786 
	C415.239288,895.913574 409.976044,904.809875 399.189117,907.126953 
	C393.137207,908.426880 386.659973,907.843933 380.374664,907.837097 
	C379.589081,907.836243 378.161072,906.190002 378.126129,905.264771 
	C377.914307,899.656616 378.020599,894.036438 378.020599,888.426697 
	C378.932678,888.224182 379.397888,888.020996 379.857300,888.033386 
	C396.621948,888.486450 394.840027,882.653870 399.469330,872.782104 
	C400.130188,871.372803 399.232910,869.020569 398.618652,867.257324 
	C388.566376,838.402222 378.441925,809.572388 368.348267,780.731628 
	C368.138275,780.131592 368.101593,779.470825 367.832306,778.021790 
	C376.502594,778.021790 384.875824,777.910034 393.237152,778.174988 
	C394.193085,778.205200 395.528931,780.206177 395.934570,781.525269 
	C401.036224,798.115356 405.997803,814.748596 411.002869,831.368469 
	C411.166779,831.912781 411.412170,832.432556 412.113739,834.229492 
	C414.651581,825.646179 416.832001,818.292480 418.999786,810.934998 
	C422.031708,800.644775 424.985077,790.330078 428.194733,780.095703 
	C428.493866,779.141785 430.378174,778.120667 431.547638,778.095032 
	C439.521851,777.920044 447.501709,778.003418 456.397247,778.003418 
	C454.455475,783.794861 452.685699,789.073303 450.696655,794.687073 
z"/>
<path fill="#5DACBD" opacity="1.000000" stroke="none" 
	d="
M578.951721,803.026001 
	C584.697144,787.392822 599.873962,776.448242 616.796509,776.781494 
	C628.981384,777.021362 639.945679,778.989990 648.583679,788.134216 
	C654.074341,793.946655 657.465332,801.085938 658.668274,808.852234 
	C659.869629,816.608765 659.893433,824.547668 660.466064,832.882080 
	C640.193787,832.882080 620.781433,832.882080 601.081848,832.882080 
	C602.836182,842.990662 607.806702,849.628967 617.595276,852.184082 
	C626.988464,854.635925 635.132141,852.032288 641.820801,845.475464 
	C645.020813,842.338623 646.824280,842.734558 649.304626,845.882263 
	C652.044434,849.359375 655.072571,852.609192 658.083618,856.083191 
	C649.168945,867.094482 637.879272,872.801819 623.641968,873.076294 
	C613.244629,873.276733 603.347656,871.844055 594.589355,865.997864 
	C585.090149,859.657104 578.613037,850.986206 576.314331,839.618225 
	C573.831665,827.340454 574.372925,815.224426 578.951721,803.026001 
M625.452026,815.999756 
	C628.568848,815.999756 631.685669,815.999756 634.773132,815.999756 
	C635.166077,806.302246 629.411865,797.920166 622.127014,797.009644 
	C610.378601,795.541077 603.954224,801.408203 601.528381,815.999756 
	C609.197144,815.999756 616.831970,815.999756 625.452026,815.999756 
z"/>
<path fill="#5DACBD" opacity="1.000000" stroke="none" 
	d="
M551.879883,797.546265 
	C552.008484,822.149109 552.008484,846.342407 552.008484,870.770142 
	C544.248596,870.770142 535.981384,870.770142 526.999268,870.770142 
	C526.999268,869.024353 526.999268,867.270386 526.999268,865.516418 
	C526.999329,847.526611 527.001160,829.536865 526.998779,811.547058 
	C526.997559,802.757874 524.475159,798.959534 517.481140,797.194214 
	C510.380768,795.402039 501.303375,799.125549 498.477509,805.193054 
	C497.892822,806.448486 498.019867,808.089966 498.017700,809.553833 
	C497.990479,828.043335 497.999725,846.532837 497.999725,865.022339 
	C497.999725,866.822449 497.999725,868.622620 497.999725,870.709473 
	C489.252838,870.709473 480.867920,870.709473 472.240814,870.709473 
	C472.240814,839.945007 472.240814,809.353516 472.240814,778.380920 
	C479.899841,778.380920 487.629730,778.380920 495.853210,778.380920 
	C496.355255,781.173035 496.894653,784.172913 497.559845,787.872437 
	C505.643372,778.454895 516.194397,775.821533 527.976196,777.011414 
	C537.888977,778.012634 546.244141,780.752808 551.879883,797.546265 
z"/>
<path fill="#5DACBD" opacity="1.000000" stroke="none" 
	d="
M718.703247,801.148987 
	C716.207886,802.162842 713.996582,802.846130 712.086548,804.019775 
	C708.267822,806.365967 705.862427,809.431091 705.917908,814.441528 
	C706.124268,833.070801 706.000244,851.703735 706.000244,870.666992 
	C697.676636,870.666992 689.624939,870.666992 681.284790,870.666992 
	C681.284790,839.919739 681.284790,809.214478 681.284790,778.258057 
	C689.162476,778.258057 696.887329,778.258057 705.055420,778.258057 
	C705.055420,781.239197 705.055420,783.972534 705.055420,786.705811 
	C712.611938,776.948975 722.568787,775.808411 733.719482,777.424072 
	C733.719482,785.017029 733.719482,792.615845 733.719482,801.040161 
	C728.954529,801.040161 724.039062,801.040161 718.703247,801.148987 
z"/>
<path fill="#000000" opacity="1.000000" stroke="none" 
	d="
M754.000122,517.000000 
	C754.000122,535.828125 753.887512,554.157471 754.093933,572.483276 
	C754.135925,576.206116 752.729492,578.084167 749.665283,579.827881 
	C732.959900,589.334167 716.389282,599.077026 699.726318,608.658569 
	C680.953247,619.453308 662.121643,630.146301 643.334106,640.915955 
	C630.368347,648.348511 617.369141,655.727173 604.539124,663.388245 
	C601.874207,664.979431 600.353088,665.021362 597.565674,663.373352 
	C579.906128,652.932312 561.999695,642.910339 544.234741,632.646179 
	C514.629150,615.540833 485.252869,598.024658 455.340973,581.474976 
	C449.017670,577.976440 447.876556,574.258301 447.897095,567.995728 
	C448.075317,513.678528 448.047943,459.360321 447.902985,405.042877 
	C447.892120,400.970367 449.283661,398.898651 452.739624,396.953064 
	C469.202087,387.685120 485.491425,378.109985 501.854370,368.664917 
	C515.539368,360.765686 529.252197,352.914703 542.932129,345.006775 
	C559.261902,335.567108 575.570007,326.089874 591.887024,316.628174 
	C594.280518,315.240265 596.562622,313.568268 599.110046,312.577515 
	C600.360046,312.091370 602.348938,312.429504 603.581970,313.133087 
	C631.445190,329.031921 659.265137,345.006836 687.060669,361.023987 
	C708.372742,373.305023 729.608154,385.719666 750.965149,397.921722 
	C753.860046,399.575684 754.024292,401.790436 754.021912,404.532227 
	C753.989502,441.854797 754.000122,479.177399 754.000122,517.000000 
M523.567078,538.919067 
	C530.299438,542.598755 537.402588,545.747192 543.656433,550.112366 
	C549.522888,554.207153 554.131653,553.215820 558.809387,548.945129 
	C560.389771,549.914307 561.746399,550.801758 563.153564,551.600220 
	C573.900269,557.698120 584.697510,563.708557 595.389160,569.901245 
	C599.335022,572.186768 602.745361,571.978333 606.704468,569.661316 
	C617.658569,563.250671 628.845276,557.238770 639.889221,550.979614 
	C642.127258,549.711243 644.002747,549.448486 646.238464,551.041077 
	C649.406555,553.297852 652.372925,553.460266 656.097473,551.132141 
	C663.660400,546.404785 671.563965,542.156677 679.607910,538.296082 
	C682.992188,536.671875 684.071411,534.891541 684.093445,531.275696 
	C684.154907,521.189148 684.783203,511.106140 684.854431,501.019379 
	C684.864807,499.543945 683.390564,497.495117 682.025146,496.680023 
	C678.163452,494.374847 674.001404,492.572784 670.000305,490.593567 
	C670.000305,480.719910 670.168823,471.222260 669.868286,461.739441 
	C669.802551,459.663635 668.619324,456.739990 667.003479,455.744904 
	C658.687317,450.623627 650.132690,445.872955 641.524841,441.246857 
	C633.487366,436.927368 632.622681,435.115509 634.243408,426.097473 
	C634.513184,424.596100 633.307495,421.944977 631.996643,421.188232 
	C623.668091,416.380096 615.004700,412.150696 606.691467,407.317993 
	C602.713989,405.005798 599.283875,404.812592 595.369202,407.117340 
	C587.684265,411.641724 579.941406,416.073914 572.118408,420.353912 
	C569.417725,421.831451 567.557312,423.379120 567.949402,426.808899 
	C568.212646,429.111359 568.371887,431.550232 567.883301,433.775574 
	C567.477112,435.625397 566.492371,437.991760 565.017273,438.858459 
	C555.713684,444.324585 546.312195,449.652740 536.702026,454.553894 
	C533.045532,456.418732 531.835388,458.690216 531.934509,462.580200 
	C532.146790,470.905487 532.084106,479.241699 531.910950,487.568787 
	C531.883728,488.878540 531.017761,490.641632 529.967590,491.367065 
	C527.306580,493.205292 524.368225,494.670471 521.449829,496.098846 
	C518.995728,497.299988 517.836304,498.800568 517.910889,501.806549 
	C518.150391,511.464203 518.254089,521.141357 517.882141,530.790588 
	C517.719971,534.997192 519.127869,537.307617 523.567078,538.919067 
z"/>
<path fill="#000000" opacity="1.000000" stroke="none" 
	d="
M806.128296,845.633667 
	C801.644470,851.453430 795.719421,853.932861 789.129456,852.793579 
	C781.268494,851.434631 776.753662,845.880371 774.639954,838.223938 
	C771.995789,828.646362 772.084778,819.033447 775.227966,809.759399 
	C779.849243,796.124756 796.149231,792.188843 804.736206,802.325745 
	C805.831543,803.618958 806.876038,805.470459 806.896790,807.076843 
	C807.055908,819.372620 806.962097,831.671692 806.907227,843.969666 
	C806.905334,844.395569 806.485840,844.819702 806.128296,845.633667 
z"/>
<path fill="#000000" opacity="1.000000" stroke="none" 
	d="
M624.959473,815.999756 
	C616.831970,815.999756 609.197144,815.999756 601.528381,815.999756 
	C603.954224,801.408203 610.378601,795.541077 622.127014,797.009644 
	C629.411865,797.920166 635.166077,806.302246 634.773132,815.999756 
	C631.685669,815.999756 628.568848,815.999756 624.959473,815.999756 
z"/>
<path fill="#5DACBD" opacity="1.000000" stroke="none" 
	d="
M523.260864,538.685913 
	C519.127869,537.307617 517.719971,534.997192 517.882141,530.790588 
	C518.254089,521.141357 518.150391,511.464203 517.910889,501.806549 
	C517.836304,498.800568 518.995728,497.299988 521.449829,496.098846 
	C524.368225,494.670471 527.306580,493.205292 529.967590,491.367065 
	C531.017761,490.641632 531.883728,488.878540 531.910950,487.568787 
	C532.084106,479.241699 532.146790,470.905487 531.934509,462.580200 
	C531.835388,458.690216 533.045532,456.418732 536.702026,454.553894 
	C546.312195,449.652740 555.713684,444.324585 565.017273,438.858459 
	C566.492371,437.991760 567.477112,435.625397 567.883301,433.775574 
	C568.371887,431.550232 568.212646,429.111359 567.949402,426.808899 
	C567.557312,423.379120 569.417725,421.831451 572.118408,420.353912 
	C579.941406,416.073914 587.684265,411.641724 595.369202,407.117340 
	C599.283875,404.812592 602.713989,405.005798 606.691467,407.317993 
	C615.004700,412.150696 623.668091,416.380096 631.996643,421.188232 
	C633.307495,421.944977 634.513184,424.596100 634.243408,426.097473 
	C632.622681,435.115509 633.487366,436.927368 641.524841,441.246857 
	C650.132690,445.872955 658.687317,450.623627 667.003479,455.744904 
	C668.619324,456.739990 669.802551,459.663635 669.868286,461.739441 
	C670.168823,471.222260 670.000305,480.719910 670.000305,490.593567 
	C674.001404,492.572784 678.163452,494.374847 682.025146,496.680023 
	C683.390564,497.495117 684.864807,499.543945 684.854431,501.019379 
	C684.783203,511.106140 684.154907,521.189148 684.093445,531.275696 
	C684.071411,534.891541 682.992188,536.671875 679.607910,538.296082 
	C671.563965,542.156677 663.660400,546.404785 656.097473,551.132141 
	C652.372925,553.460266 649.406555,553.297852 646.238464,551.041077 
	C644.002747,549.448486 642.127258,549.711243 639.889221,550.979614 
	C628.845276,557.238770 617.658569,563.250671 606.704468,569.661316 
	C602.745361,571.978333 599.335022,572.186768 595.389160,569.901245 
	C584.697510,563.708557 573.900269,557.698120 563.153564,551.600220 
	C561.746399,550.801758 560.389771,549.914307 558.809387,548.945129 
	C554.131653,553.215820 549.522888,554.207153 543.656433,550.112366 
	C537.402588,545.747192 530.299438,542.598755 523.260864,538.685913 
M544.089539,483.423889 
	C549.144165,479.414093 553.828613,481.529755 558.535583,484.226410 
	C563.763550,487.221527 568.902039,490.429749 574.345215,492.977417 
	C580.666931,495.936279 586.343994,498.750305 583.086060,507.440369 
	C582.483765,509.046783 583.000000,511.072510 582.999939,512.904724 
	C582.999817,519.400757 583.231018,525.910339 582.851257,532.384155 
	C582.744446,534.203430 581.238037,536.483521 579.685791,537.566162 
	C576.050964,540.101379 571.999695,542.039673 567.834229,544.378418 
	C579.258972,550.739502 590.201782,556.832275 601.042053,562.867920 
	C612.001709,556.746948 622.890747,550.665466 634.188538,544.355652 
	C629.761841,541.850708 625.693420,539.793091 621.924683,537.285034 
	C620.577087,536.388245 619.162903,534.420532 619.128174,532.910583 
	C618.886780,522.422546 618.871216,511.923096 619.133789,501.436066 
	C619.175293,499.777863 620.595947,497.524323 622.046143,496.639038 
	C628.710754,492.570801 635.866943,489.273285 642.352356,484.956451 
	C648.114014,481.121307 653.444519,479.836365 659.381653,484.008514 
	C660.124023,484.530182 660.893250,485.013702 661.999023,485.746033 
	C661.999023,478.560120 662.033630,471.900818 661.963196,465.242615 
	C661.952209,464.200287 661.797119,462.586151 661.146362,462.210358 
	C652.323425,457.115723 643.401062,452.193359 634.000549,446.947815 
	C634.000549,449.660400 633.880859,451.639008 634.025513,453.598053 
	C634.326111,457.669830 633.451660,460.505310 629.169373,462.587921 
	C621.144775,466.490509 613.717163,471.626862 605.669312,475.471558 
	C603.042786,476.726318 598.857178,476.499084 596.090454,475.308868 
	C590.278259,472.808563 585.174438,468.640930 579.339417,466.218781 
	C571.019531,462.765137 565.896912,457.957703 567.907776,448.239319 
	C567.940857,448.079285 567.571960,447.836029 567.143433,447.352966 
	C558.594788,452.171173 549.962891,457.003418 541.387573,461.933868 
	C540.724060,462.315369 540.075989,463.381317 540.065308,464.138306 
	C539.965149,471.204926 540.005981,478.273560 540.005981,485.934845 
	C541.597046,485.050629 542.572754,484.508362 544.089539,483.423889 
M546.964539,520.239441 
	C540.204590,516.132568 533.444702,512.025696 526.000549,507.503174 
	C526.000549,513.541260 526.398010,518.228516 525.896606,522.817688 
	C525.312378,528.165649 526.662781,531.578430 531.970947,533.787354 
	C537.045776,535.899231 541.687073,539.052612 546.994629,542.013611 
	C546.994629,534.386353 546.994629,527.750671 546.964539,520.239441 
M674.981628,530.986145 
	C675.470642,523.570679 675.959595,516.155212 676.518921,507.672699 
	C669.257507,511.701019 663.020386,515.083740 656.889160,518.648499 
	C656.000427,519.165283 655.109802,520.542358 655.085571,521.542358 
	C654.925720,528.128113 655.003052,534.719727 655.003052,542.069885 
	C661.799377,538.258057 668.008545,534.775635 674.981628,530.986145 
M576.903442,432.598999 
	C576.628052,439.714661 576.330627,446.829681 576.137207,453.947571 
	C576.126526,454.337036 576.928528,454.844940 577.443359,455.137604 
	C583.755249,458.726257 590.084167,462.284912 596.999451,466.184479 
	C596.999451,458.849396 597.153076,452.396179 596.873840,445.961731 
	C596.815796,444.625183 595.434998,442.877106 594.181091,442.142517 
	C588.723389,438.945038 583.087341,436.051910 576.903442,432.598999 
M616.008362,437.490448 
	C612.353088,439.542633 608.697815,441.594849 605.297974,443.503632 
	C605.297974,451.008270 605.297974,458.200928 605.297974,465.932617 
	C611.717102,462.420471 617.709778,459.207672 623.616760,455.844452 
	C624.597473,455.286041 625.854248,454.089722 625.880493,453.157166 
	C626.072876,446.316101 625.984253,439.467133 625.984253,432.436371 
	C622.445679,434.189331 619.540710,435.628448 616.008362,437.490448 
M637.002686,513.503052 
	C633.781616,511.809479 630.560608,510.115936 627.000549,508.244141 
	C627.000549,515.130859 626.966125,521.428955 627.034424,527.725952 
	C627.045837,528.773254 627.165039,530.390442 627.809326,530.770996 
	C633.904419,534.371277 640.124084,537.760742 647.000000,541.597168 
	C647.000000,536.551025 646.450867,532.355957 647.117126,528.363647 
	C648.406555,520.637329 644.936035,516.401978 638.115051,514.024597 
	C637.960327,513.970642 637.789978,513.961365 637.002686,513.503052 
M555.000000,522.890076 
	C555.000000,528.812622 555.000000,534.735107 555.000000,541.559937 
	C561.860229,537.750549 568.053528,534.351013 574.180603,530.835938 
	C574.682861,530.547791 574.954895,529.475830 574.960999,528.764893 
	C575.018677,522.062805 574.995300,515.360046 574.995300,508.118073 
	C568.429810,511.681671 562.424255,514.807617 556.598389,518.238525 
	C555.656494,518.793213 555.513184,520.703735 555.000000,522.890076 
M603.382080,434.929901 
	C609.150330,431.774170 614.918579,428.618439 621.026550,425.276855 
	C614.038696,421.401428 607.397217,417.718109 600.985229,414.162048 
	C594.269104,417.905304 587.723694,421.553436 581.044678,425.276031 
	C585.367065,427.702728 589.087646,430.085480 593.059570,431.925873 
	C596.087769,433.328979 599.434753,434.044281 603.382080,434.929901 
M638.441162,496.921021 
	C636.414673,498.114075 634.388123,499.307159 631.591797,500.953461 
	C638.334290,504.593903 644.559448,508.006378 650.858582,511.276367 
	C651.487366,511.602753 652.694946,511.292633 653.415405,510.888489 
	C659.285767,507.595032 665.104126,504.208893 671.047607,500.788055 
	C665.289490,497.449524 660.067261,494.142487 654.564026,491.399017 
	C652.888367,490.563690 650.213074,490.703644 648.392395,491.413940 
	C645.114685,492.692749 642.136597,494.739563 638.441162,496.921021 
M556.488708,492.992676 
	C553.886597,492.277191 550.741089,490.266022 548.783447,491.087067 
	C542.704590,493.636719 537.076782,497.261749 530.379944,500.963715 
	C535.880676,503.786713 541.286438,505.821960 545.791931,509.096130 
	C549.726868,511.955627 552.606995,511.147583 556.090271,509.015656 
	C559.254272,507.079071 562.616333,505.468689 565.822083,503.596313 
	C567.222412,502.778412 568.450745,501.665863 570.022522,500.488312 
	C565.318176,497.962830 561.176147,495.739166 556.488708,492.992676 
z"/>
<path fill="#000000" opacity="1.000000" stroke="none" 
	d="
M543.819031,483.694977 
	C542.572754,484.508362 541.597046,485.050629 540.005981,485.934845 
	C540.005981,478.273560 539.965149,471.204926 540.065308,464.138306 
	C540.075989,463.381317 540.724060,462.315369 541.387573,461.933868 
	C549.962891,457.003418 558.594788,452.171173 567.143433,447.352966 
	C567.571960,447.836029 567.940857,448.079285 567.907776,448.239319 
	C565.896912,457.957703 571.019531,462.765137 579.339417,466.218781 
	C585.174438,468.640930 590.278259,472.808563 596.090454,475.308868 
	C598.857178,476.499084 603.042786,476.726318 605.669312,475.471558 
	C613.717163,471.626862 621.144775,466.490509 629.169373,462.587921 
	C633.451660,460.505310 634.326111,457.669830 634.025513,453.598053 
	C633.880859,451.639008 634.000549,449.660400 634.000549,446.947815 
	C643.401062,452.193359 652.323425,457.115723 661.146362,462.210358 
	C661.797119,462.586151 661.952209,464.200287 661.963196,465.242615 
	C662.033630,471.900818 661.999023,478.560120 661.999023,485.746033 
	C660.893250,485.013702 660.124023,484.530182 659.381653,484.008514 
	C653.444519,479.836365 648.114014,481.121307 642.352356,484.956451 
	C635.866943,489.273285 628.710754,492.570801 622.046143,496.639038 
	C620.595947,497.524323 619.175293,499.777863 619.133789,501.436066 
	C618.871216,511.923096 618.886780,522.422546 619.128174,532.910583 
	C619.162903,534.420532 620.577087,536.388245 621.924683,537.285034 
	C625.693420,539.793091 629.761841,541.850708 634.188538,544.355652 
	C622.890747,550.665466 612.001709,556.746948 601.042053,562.867920 
	C590.201782,556.832275 579.258972,550.739502 567.834229,544.378418 
	C571.999695,542.039673 576.050964,540.101379 579.685791,537.566162 
	C581.238037,536.483521 582.744446,534.203430 582.851257,532.384155 
	C583.231018,525.910339 582.999817,519.400757 582.999939,512.904724 
	C583.000000,511.072510 582.483765,509.046783 583.086060,507.440369 
	C586.343994,498.750305 580.666931,495.936279 574.345215,492.977417 
	C568.902039,490.429749 563.763550,487.221527 558.535583,484.226410 
	C553.828613,481.529755 549.144165,479.414093 543.819031,483.694977 
z"/>
<path fill="#000000" opacity="1.000000" stroke="none" 
	d="
M546.979614,520.677246 
	C546.994629,527.750671 546.994629,534.386353 546.994629,542.013611 
	C541.687073,539.052612 537.045776,535.899231 531.970947,533.787354 
	C526.662781,531.578430 525.312378,528.165649 525.896606,522.817688 
	C526.398010,518.228516 526.000549,513.541260 526.000549,507.503174 
	C533.444702,512.025696 540.204590,516.132568 546.979614,520.677246 
z"/>
<path fill="#000000" opacity="1.000000" stroke="none" 
	d="
M674.599670,531.139648 
	C668.008545,534.775635 661.799377,538.258057 655.003052,542.069885 
	C655.003052,534.719727 654.925720,528.128113 655.085571,521.542358 
	C655.109802,520.542358 656.000427,519.165283 656.889160,518.648499 
	C663.020386,515.083740 669.257507,511.701019 676.518921,507.672699 
	C675.959595,516.155212 675.470642,523.570679 674.599670,531.139648 
z"/>
<path fill="#000000" opacity="1.000000" stroke="none" 
	d="
M577.209778,432.823608 
	C583.087341,436.051910 588.723389,438.945038 594.181091,442.142517 
	C595.434998,442.877106 596.815796,444.625183 596.873840,445.961731 
	C597.153076,452.396179 596.999451,458.849396 596.999451,466.184479 
	C590.084167,462.284912 583.755249,458.726257 577.443359,455.137604 
	C576.928528,454.844940 576.126526,454.337036 576.137207,453.947571 
	C576.330627,446.829681 576.628052,439.714661 577.209778,432.823608 
z"/>
<path fill="#000000" opacity="1.000000" stroke="none" 
	d="
M616.322021,437.278992 
	C619.540710,435.628448 622.445679,434.189331 625.984253,432.436371 
	C625.984253,439.467133 626.072876,446.316101 625.880493,453.157166 
	C625.854248,454.089722 624.597473,455.286041 623.616760,455.844452 
	C617.709778,459.207672 611.717102,462.420471 605.297974,465.932617 
	C605.297974,458.200928 605.297974,451.008270 605.297974,443.503632 
	C608.697815,441.594849 612.353088,439.542633 616.322021,437.278992 
z"/>
<path fill="#000000" opacity="1.000000" stroke="none" 
	d="
M637.314819,513.717163 
	C637.789978,513.961365 637.960327,513.970642 638.115051,514.024597 
	C644.936035,516.401978 648.406555,520.637329 647.117126,528.363647 
	C646.450867,532.355957 647.000000,536.551025 647.000000,541.597168 
	C640.124084,537.760742 633.904419,534.371277 627.809326,530.770996 
	C627.165039,530.390442 627.045837,528.773254 627.034424,527.725952 
	C626.966125,521.428955 627.000549,515.130859 627.000549,508.244141 
	C630.560608,510.115936 633.781616,511.809479 637.314819,513.717163 
z"/>
<path fill="#000000" opacity="1.000000" stroke="none" 
	d="
M555.000366,522.438843 
	C555.513184,520.703735 555.656494,518.793213 556.598389,518.238525 
	C562.424255,514.807617 568.429810,511.681671 574.995300,508.118073 
	C574.995300,515.360046 575.018677,522.062805 574.960999,528.764893 
	C574.954895,529.475830 574.682861,530.547791 574.180603,530.835938 
	C568.053528,534.351013 561.860229,537.750549 555.000000,541.559937 
	C555.000000,534.735107 555.000000,528.812622 555.000366,522.438843 
z"/>
<path fill="#000000" opacity="1.000000" stroke="none" 
	d="
M603.010986,434.997742 
	C599.434753,434.044281 596.087769,433.328979 593.059570,431.925873 
	C589.087646,430.085480 585.367065,427.702728 581.044678,425.276031 
	C587.723694,421.553436 594.269104,417.905304 600.985229,414.162048 
	C607.397217,417.718109 614.038696,421.401428 621.026550,425.276855 
	C614.918579,428.618439 609.150330,431.774170 603.010986,434.997742 
z"/>
<path fill="#000000" opacity="1.000000" stroke="none" 
	d="
M638.737244,496.693298 
	C642.136597,494.739563 645.114685,492.692749 648.392395,491.413940 
	C650.213074,490.703644 652.888367,490.563690 654.564026,491.399017 
	C660.067261,494.142487 665.289490,497.449524 671.047607,500.788055 
	C665.104126,504.208893 659.285767,507.595032 653.415405,510.888489 
	C652.694946,511.292633 651.487366,511.602753 650.858582,511.276367 
	C644.559448,508.006378 638.334290,504.593903 631.591797,500.953461 
	C634.388123,499.307159 636.414673,498.114075 638.737244,496.693298 
z"/>
<path fill="#000000" opacity="1.000000" stroke="none" 
	d="
M556.761353,493.254089 
	C561.176147,495.739166 565.318176,497.962830 570.022522,500.488312 
	C568.450745,501.665863 567.222412,502.778412 565.822083,503.596313 
	C562.616333,505.468689 559.254272,507.079071 556.090271,509.015656 
	C552.606995,511.147583 549.726868,511.955627 545.791931,509.096130 
	C541.286438,505.821960 535.880676,503.786713 530.379944,500.963715 
	C537.076782,497.261749 542.704590,493.636719 548.783447,491.087067 
	C550.741089,490.266022 553.886597,492.277191 556.761353,493.254089 
z"/>
</svg>