<?xml version="1.0" encoding="UTF-8"?>
<svg version="1.1" xmlns="http://www.w3.org/2000/svg" width="300" height="300">
<path d="M0 0 C99 0 198 0 300 0 C300 99 300 198 300 300 C201 300 102 300 0 300 C0 201 0 102 0 0 Z " fill="#FEFEFE" transform="translate(0,0)"/>
<path d="M0 0 C0 1.32 0 2.64 0 4 C0.515625 3.175 1.03125 2.35 1.5625 1.5 C4 -1 4 -1 7.5625 -1.5 C11 -1 11 -1 12.9375 0 C14.64600053 3.21600099 14.57777761 6.4444455 14 10 C12.5 12 12.5 12 11 13 C11.99 13.33 12.98 13.66 14 14 C16.68693349 19.67241514 17.30369607 24.8898675 17.375 31.125 C17.39566528 32.12768921 17.39566528 32.12768921 17.41674805 33.15063477 C17.37035396 38.17294928 16.16973931 41.58016066 14 46 C13.01 46 12.02 46 11 46 C11 46.66 11 47.32 11 48 C12.32 48.66 13.64 49.32 15 50 C15.3125 53.25 15.3125 53.25 15 57 C12.8125 59.5 12.8125 59.5 10 61 C6.0164435 60.90041109 3.2803869 59.15568282 0 57 C0 57.99 0 58.98 0 60 C-5.97774758 62.60847167 -11.23929429 63.32500853 -17.6875 63.375 C-18.41187256 63.38853516 -19.13624512 63.40207031 -19.88256836 63.41601562 C-24.64090797 63.37673109 -27.82050797 62.48794959 -32 60 C-32 58.68 -32 57.36 -32 56 C-32.70125 56.825 -33.4025 57.65 -34.125 58.5 C-37 61 -37 61 -40.125 61.5 C-43.32494069 60.94348858 -44.08673442 60.53592598 -46 58 C-46.1875 55.90625 -46.1875 55.90625 -46 53.5 C-45.86375354 49.56588355 -46.29174299 46.55474045 -47.5 42.8125 C-50.34719402 33.26762099 -50.4146872 23.01331971 -46 14 C-44.68 14 -43.36 14 -42 14 C-42.825 13.484375 -43.65 12.96875 -44.5 12.4375 C-47 10 -47 10 -47.5625 6.5 C-47 3 -47 3 -45.375 0.5625 C-42.28314769 -1.47161336 -40.63632575 -1.60605429 -37 -1 C-34.16508061 1.06872496 -33.17530012 2.3572329 -32.25 5.75 C-32.12625 6.86375 -32.12625 6.86375 -32 8 C-31.79029441 3.85906302 -31.79029441 3.85906302 -33 0 C-22.71348181 -4.4085078 -10.16419246 -5.08209623 0 0 Z " fill="#FAFBFE" transform="translate(166,120)"/>
<path d="M0 0 C2.375 1.625 2.375 1.625 4 4 C4.61195145 7.6717087 4.48706506 9.28813568 2.375 12.375 C-0.69477548 14.4753727 -2.34556561 14.53293835 -6 14 C-8.375 12.9375 -8.375 12.9375 -10 11 C-10.57491549 7.04745604 -10.61372366 4.92058549 -8.375 1.5625 C-5.28314769 -0.47161336 -3.63632575 -0.60605429 0 0 Z " fill="#4FA8E0" transform="translate(129,119)"/>
<path d="M0 0 C2.375 1.0625 2.375 1.0625 4 3 C4.5625 6.4375 4.5625 6.4375 4 10 C1.8125 12.5 1.8125 12.5 -1 14 C-3.9348934 13.92841723 -5.68973933 13.15093762 -8.3125 11.875 C-10 10 -10 10 -10.5 6.5 C-10 3 -10 3 -8.375 1.0625 C-5.32437685 -0.30225246 -3.31256176 -0.41407022 0 0 Z " fill="#2640DE" transform="translate(177,167)"/>
<path d="M0 0 C2.375 1 2.375 1 4 3 C4.56641498 5.77427747 4.56641498 8.22572253 4 11 C1.78300364 13.7286109 0.41355329 13.94936082 -3.0625 14.375 C-6 14 -6 14 -7.875 13 C-9.68523932 9.78179676 -9.53967465 6.59783102 -9 3 C-6.88807224 -0.75453824 -4.01205827 -0.49127244 0 0 Z " fill="#4CA6E0" transform="translate(129,167)"/>
<path d="M0 0 C1.9375 1 1.9375 1 3 3 C3.51588106 5.78227986 3.61084998 8.22812414 3 11 C0.875 13.0625 0.875 13.0625 -2 14 C-5.70028236 13.78233633 -7.35491041 13.64508959 -10 11 C-10.55239643 4.03980504 -10.55239643 4.03980504 -8.9375 1 C-5.86784865 -0.58433618 -3.38318857 -0.36248449 0 0 Z " fill="#243FDE" transform="translate(177,119)"/>
<path d="M0 0 C0.33 2.97 0.66 5.94 1 9 C-7.06524596 12.39589303 -14.38261147 12.30654742 -23 12 C-23 11.67 -23 11.34 -23 11 C-22.46632812 10.87625 -21.93265625 10.7525 -21.3828125 10.625 C-15.12708973 8.89331204 -11.08082605 5.9514629 -6.26171875 1.64453125 C-4 0 -4 0 0 0 Z " fill="#3563DF" transform="translate(165,171)"/>
<path d="M0 0 C0.28230469 0.58007812 0.56460938 1.16015625 0.85546875 1.7578125 C3.33705808 6.61935611 6.17180465 11.1749035 9.8125 15.25 C12 18 12 18 12 22 C10.329375 22.2165625 10.329375 22.2165625 8.625 22.4375 C5.17857953 22.78372035 5.17857953 22.78372035 3 24 C-0.11584616 15.95073076 -0.33328851 8.56674915 0 0 Z " fill="#52AEE0" transform="translate(117,143)"/>
<path d="M0 0 C-3 2 -3 2 -6.1875 3.75 C-9.80568028 5.77802462 -12.98123863 8.22484081 -16.203125 10.828125 C-18 12 -18 12 -21 12 C-21.144375 10.88625 -21.28875 9.7725 -21.4375 8.625 C-21.78372035 5.17857953 -21.78372035 5.17857953 -23 3 C-15.22270481 -0.21819111 -8.35740901 -0.32098157 0 0 Z " fill="#4287E0" transform="translate(156,117)"/>
<path d="M0 0 C3.0517291 7.50216736 3.33608711 13.94635715 3 22 C1 19 1 19 -0.75 15.8125 C-2.77802462 12.19431972 -5.22484081 9.01876137 -7.828125 5.796875 C-9 4 -9 4 -9 1 C-5.94152152 0.45627049 -3.11227195 0 0 0 Z " fill="#243CDE" transform="translate(180,134)"/>
<path d="M0 0 C3.90879961 1.65372291 6.76211625 4.30176354 10 7 C12.21587348 8.27852287 12.21587348 8.27852287 14 9 C10.78817851 10.90608098 8.46117397 11.22266247 4.75 11.125 C3.85796875 11.10695312 2.9659375 11.08890625 2.046875 11.0703125 C1.03367188 11.03550781 1.03367188 11.03550781 0 11 C-1.35015859 6.94952424 -0.62084998 4.2079832 0 0 Z " fill="#498EE1" transform="translate(135,170)"/>
<path d="M0 0 C1.31677734 0.00966797 1.31677734 0.00966797 2.66015625 0.01953125 C4.9375 0.1875 4.9375 0.1875 6.9375 1.1875 C6.6075 4.1575 6.2775 7.1275 5.9375 10.1875 C2.41379203 9.30657301 1.10827417 8.81065637 -1.625 6.75 C-3.74729031 5.166554 -5.85537584 3.65891611 -8.0625 2.1875 C-4.79122414 0.00664943 -3.78873277 -0.06137859 0 0 Z " fill="#3661E0" transform="translate(159.0625,118.8125)"/>
<path d="M0 0 C0.66 0 1.32 0 2 0 C3.18306728 2.36613456 3.13354608 3.86780736 3.125 6.5 C3.12757813 7.2940625 3.13015625 8.088125 3.1328125 8.90625 C3 11 3 11 2 13 C-0.97 12.67 -3.94 12.34 -7 12 C-6.06479356 8.25917424 -5.30929139 6.71642384 -3.0625 3.75 C-2.53785156 3.04359375 -2.01320312 2.3371875 -1.47265625 1.609375 C-0.74369141 0.81273437 -0.74369141 0.81273437 0 0 Z " fill="#263EDE" transform="translate(178,153)"/>
<path d="M0 0 C1.52519276 0.08937803 3.04681929 0.24537146 4.5625 0.4375 C5.80193359 0.59025391 5.80193359 0.59025391 7.06640625 0.74609375 C7.70449219 0.82988281 8.34257812 0.91367188 9 1 C8.38271885 4.38361519 7.13020282 6.52002561 5.0625 9.25 C4.53785156 9.95640625 4.01320313 10.6628125 3.47265625 11.390625 C2.98667969 11.92171875 2.50070313 12.4528125 2 13 C1.34 13 0.68 13 0 13 C-1.25069801 10.49860398 -1.13302467 8.72607309 -1.125 5.9375 C-1.12757812 5.03902344 -1.13015625 4.14054688 -1.1328125 3.21484375 C-1 1 -1 1 0 0 Z " fill="#51AEE0" transform="translate(120,134)"/>
<path d="M0 0 C0.33 0 0.66 0 1 0 C1.33 2.97 1.66 5.94 2 9 C2.66 9 3.32 9 4 9 C3.67 10.32 3.34 11.64 3 13 C0.49969505 10.06485941 -0.61469778 7.85302223 -1 4 C-0.5625 1.6875 -0.5625 1.6875 0 0 Z " fill="#D3EAF7" transform="translate(118,138)"/>
<path d="M0 0 C0 0.33 0 0.66 0 1 C-0.61488281 1.13277344 -1.22976562 1.26554687 -1.86328125 1.40234375 C-3.07564453 1.66724609 -3.07564453 1.66724609 -4.3125 1.9375 C-5.51326172 2.19853516 -5.51326172 2.19853516 -6.73828125 2.46484375 C-9.145401 2.99886159 -9.145401 2.99886159 -12 4 C-11.67 3.01 -11.34 2.02 -11 1 C-6.95637513 -0.8380113 -4.26550147 -1.25455926 0 0 Z " fill="#D9E2F9" transform="translate(161,118)"/>
</svg>
